<?xml version="1.0" encoding="UTF-8"?><svg id="Layer_2" xmlns="http://www.w3.org/2000/svg" viewBox="0 0 447.1958 125.879"><g id="Components"><g id="_2a8cb079-bb61-4dd8-b022-2ac29f76b727_1"><path d="m294.7289,21.0906h-24.9759l-.0094.0094v101.181l.0094.0094h24.9759c30.4162,0,54.6873-19.601,54.6873-50.8912,0-31.1492-23.9798-50.3086-54.6873-50.3086Zm.1409,81.5989h-3.4672c-.0094,0-.0094-.0094-.0094-.0094v-61.8381q0-.0094.0094-.0094h3.4672c18.2855,0,33.0474,10.9657,33.0474,30.8579s-14.7619,30.999-33.0474,30.999Z" style="fill:#231f20; stroke-width:0px;"/><path d="m402.2055,18.0367c-24.816,0-44.9996,23.9046-44.9996,53.2685s20.1836,53.2779,44.9996,53.2779,44.9902-23.9046,44.9902-53.2779-20.1836-53.2685-44.9902-53.2685Zm0,84.991c-12.7135,0-23.4442-14.5269-23.4442-31.7225,0-17.1861,10.7307-31.713,23.4442-31.713,12.6946,0,23.4348,14.5269,23.4348,31.713,0,17.1955-10.7401,31.7225-23.4348,31.7225Z" style="fill:#231f20; stroke-width:0px;"/><path d="m123.4676,102.3605v-22.3542h32.1452v-18.9903h-32.1452v-20.3057h45.2909v-19.7232h-66.6208v101.0871h67.6451v-19.7138h-46.3152Z" style="fill:#231f20; stroke-width:0px;"/><path d="m259.266,21.2973l-.9773,100.777h-21.6024c-8.6353-14.9404-17.2144-29.8902-25.7463-44.9057-2.6027-4.6888-5.6191-9.9696-8.7669-15.4665.0282,3.5049.0564,6.8594.0845,9.9414l.31,50.4214-21.6401.0282c.0847-16.8478.3196-59.4044.4417-75.6602.0469-8.3723.1033-16.7539.263-25.1262v-.1033l20.1461.0188v-.2349h.7799c7.2071,14.5269,16.9983,31.5345,25.4175,46.4842,3.4109,5.9762,6.8312,11.9617,10.2703,17.9285l-.6201-64.1026h21.6401Z" style="fill:#231f20; stroke-width:0px;"/><path d="m46.8905,125.879c-4.4578,0-8.8752-1.765-10.1228-2.306l-.5767-.2693c-11.2413-5.6328-20.1441-22.3886-27.2176-51.2245C3.3548,49.174,0,22.2285,0,0h22.9598c0,20.2551,3.0525,44.9323,8.1659,66.0115,7.0675,29.135,14.074,35.751,15.2105,36.6577.2386.0808.4983.1597.7066.2133.0583-.017.1216-.0376.1721-.0578l.0895-.0473c.0555-.0321,7.6672-5.0905,15.3509-36.7659,5.1135-21.0796,8.1659-45.7568,8.1659-66.0115h22.9598c0,22.2285-3.3548,49.174-8.9734,72.0793-7.0382,28.6913-15.8877,45.4237-27.0488,51.1391-1.476.7809-5.5814,2.6606-10.8683,2.6606Zm.1271-22.958c-.0973.0518-.1482.0863-.1482.0863l.1624-.0858c-.0046,0-.0096-.0005-.0142-.0005Zm.2987.0211h.0005-.0005Zm-.24-.0509c.0028.0005.006.0014.0087.0018l.1216-.0638c-.0486.0216-.0922.0422-.1303.0619Z" style="fill:#231f20; stroke-width:0px;"/></g></g></svg>