<?xml version="1.0" encoding="utf-8"?>
<!-- Generator: Adobe Illustrator 28.3.0, SVG Export Plug-In . SVG Version: 6.00 Build 0)  -->
<svg version="1.1" id="Layer_1" xmlns="http://www.w3.org/2000/svg" xmlns:xlink="http://www.w3.org/1999/xlink" x="0px" y="0px"
	 viewBox="200 410 600 180" xml:space="preserve">
<style type="text/css">
	.st0{fill:#0A1640;}
	.st1{fill:#FFFFFF;}
	.st2{fill:#F20A0A;}
	.st3{fill:#161616;}
</style>
<g>
	<path class="st0" d="M414.98,479.5c0-6.14-1.83-10.82-5.5-14.04c-3.66-3.22-9.65-4.83-17.97-4.83H367v39.21h24.66
		c7.23,0,12.92-1.76,17.08-5.27C412.9,491.06,414.98,486.04,414.98,479.5z"/>
	<path class="st0" d="M206.23,418.02v163.96h273.27V418.02H206.23z M300.98,493.24c-1.53,4.11-3.78,7.7-6.75,10.77
		c-2.98,3.07-6.71,5.49-11.21,7.28c-4.51,1.78-9.93,2.68-16.26,2.68h-24.81v38.02h-14.11V448.02h38.77c7.03,0,12.87,0.8,17.53,2.37
		c4.65,1.58,8.41,3.81,11.29,6.68c2.87,2.88,4.9,6.29,6.09,10.25c1.19,3.96,1.78,8.27,1.78,12.92
		C303.29,484.8,302.52,489.13,300.98,493.24z M330.61,551.99H316.5V448.02h14.11V551.99z M413.94,551.99l-22.59-39.8h-24.34v39.8
		h-14.12V448.02h40.25c6.04,0,11.31,0.69,15.82,2.08c4.5,1.39,8.22,3.4,11.14,6.02c2.92,2.62,5.08,5.86,6.46,9.73
		c1.39,3.86,2.08,8.37,2.08,13.51c0,4.75-0.8,9.11-2.37,13.07c-1.59,3.96-3.94,7.41-7.06,10.33c-3.12,2.92-6.86,5.22-11.21,6.9
		c-0.58,0.22-1.17,0.43-1.76,0.63l24.19,41.71H413.94z M457.91,551.99H443.8V448.02h14.11V551.99z"/>
	<polygon class="st2" points="594.68,551.98 664.34,551.98 664.34,532.38 614.73,532.38 614.73,507.87 659.59,507.87 659.59,489.75 
		614.73,489.75 614.73,467.32 664.34,467.32 664.34,448.01 594.68,448.01 	"/>
	<path class="st2" d="M761.92,479.35c-1.78-6.34-4.53-11.83-8.24-16.49c-3.71-4.65-8.42-8.29-14.11-10.92
		c-5.7-2.62-12.55-3.94-20.57-3.94h-42.63v103.97H719c8.02,0,14.88-1.34,20.57-4.01c5.69-2.67,10.4-6.34,14.11-10.99
		c3.71-4.65,6.46-10.15,8.24-16.49c1.78-6.34,2.67-13.17,2.67-20.5C764.6,492.57,763.71,485.69,761.92,479.35z M741.35,515.89
		c-1.54,4.16-3.74,7.48-6.61,9.95c-2.87,2.48-6.12,4.18-9.73,5.12c-3.62,0.94-7.7,1.41-12.25,1.41h-16.49v-65.06h16.34
		c4.55,0,8.66,0.5,12.33,1.49c3.66,0.99,6.91,2.72,9.73,5.2c2.82,2.48,5.02,5.82,6.61,10.03c1.58,4.21,2.38,9.53,2.38,15.97
		C743.65,506.44,742.89,511.73,741.35,515.89z"/>
	<g>
		<g>
			<g>
				<path class="st2" d="M523.03,467.82c3.03-5.2,4.15-9.69,3.42-13.74c-0.22-1.25-0.58-2.51-1.09-3.88l-0.32-0.86h-25.05v44.12
					l2.49-2.32C509.97,484.15,517.72,476.92,523.03,467.82z"/>
				<path class="st2" d="M522.13,493.28c2.77-2.19,5.63-4.46,8.45-6.66l0.08-0.07c5.67-4.43,12.11-9.45,15.33-16.48
					c2.72-5.93,2.79-12.96,0.21-19.81l-0.31-0.82l-0.87-0.04c-1-0.05-2.05-0.07-3.12-0.07h-12.54l0.28,1.56
					c1.1,6.08,0.52,11.23-1.84,16.21c-2.15,4.54-5.35,8.51-7.9,11.46c-5.19,6.01-11.37,11.89-19.43,18.53l-0.48,0.4v12.77l2.11-1.54
					C508.89,503.77,515.62,498.44,522.13,493.28z"/>
				<path class="st2" d="M550.93,496.82c5.07-3.33,9.17-7.42,12.19-12.15c2.42-3.79,4.14-7.99,5.13-12.49
					c1.68-7.66,0.65-13.48,0.61-13.72l-0.08-0.43l-0.32-0.3c-3.05-2.85-6.85-4.99-11.3-6.36c-1.62-0.5-3.36-0.91-5.15-1.22
					l-2.11-0.37l0.61,2.05c1.95,6.54,1.25,13.7-1.96,20.15c-3.79,7.6-10.48,13.01-16.52,17.3c-1.38,0.98-2.8,1.96-4.18,2.91
					c-4.84,3.33-9.85,6.78-14.11,11.03c-5.06,5.05-9.39,11.48-13.63,20.25l-0.13,0.27v26.91h21.54v-34.81h9.66l0.38-0.69
					C533.73,511.17,538.86,504.75,550.93,496.82z"/>
				<path class="st2" d="M559.14,512.27c3.33-1.54,6.28-3.55,8.78-5.97c3.12-3.03,5.57-6.64,7.28-10.73
					c1.7-4.09,2.57-8.72,2.57-13.76c0-5.12-0.79-9.74-2.35-13.73c-0.62-1.6-1.38-3.13-2.23-4.54l-2.79-4.6l0.22,3.51l1.44,1.77
					c0.39,6.27-0.34,23.22-17.62,34.57c-9.55,6.28-14.87,11.66-17.83,15.71h-1.64l-0.97,1.33h3.55l18.36,34.81h24.48L559.14,512.27z
					"/>
			</g>
		</g>
		<g>
			<g>
				<g>
					<path class="st0" d="M580.45,548.05l-19.47-35.19c2.94-1.51,5.58-3.38,7.86-5.59c3.25-3.15,5.8-6.91,7.58-11.17
						c1.77-4.26,2.67-9.06,2.67-14.27c0-5.29-0.82-10.07-2.44-14.21c-0.09-0.24-0.19-0.48-0.29-0.71c0,0,0,0,0,0
						c-0.59-1.41-1.28-2.76-2.04-4.03l-0.46-0.76c-1.34-1.93-2.84-3.6-3.83-4.64l-0.02-0.1l-0.64-0.6
						c-0.15-0.14-0.31-0.29-0.47-0.43c-3.12-2.78-6.93-4.87-11.35-6.23c-5.83-1.79-11.53-2.02-17.56-1.97
						c-13.78,0.11-27.56-0.09-41.34-0.12v103.97h24.19v-34.81h13.9l17.61,33.4l0.75,1.41h27.52L580.45,548.05z M556.7,549.33
						l-18.09-34.3l-0.27-0.51H520.2v34.81h-18.89v-98.66h40.59c0.51,0,1.02,0.01,1.53,0.02c0.07,0,0.13,0,0.2,0
						c0.45,0.01,0.89,0.03,1.33,0.05l2.92,0.31l1.04,0.11l2.86,0.3c0.39,0.07,0.77,0.14,1.15,0.22c0.59,0.12,1.17,0.25,1.74,0.39
						c0.72,0.18,1.42,0.37,2.1,0.58c2.71,0.84,5.15,1.95,7.31,3.36c0,0,0,0,0,0c1.1,0.71,2.13,1.5,3.08,2.35
						c0.13,0.11,0.26,0.23,0.38,0.35l1.62,1.99l1.35,1.67l0.09,0.11l1.44,1.77c0.74,1.22,1.39,2.51,1.95,3.88c0,0,0,0,0,0
						c0.06,0.15,0.12,0.3,0.18,0.45c1.5,3.86,2.26,8.27,2.26,13.25c0,4.89-0.82,9.3-2.47,13.25c-1.65,3.95-3.97,7.38-6.98,10.29
						c-2.72,2.64-5.96,4.73-9.72,6.29l20.85,37.69H556.7z"/>
					<path class="st0" d="M552.81,475.6c-4.11,8.24-11.17,13.98-17.54,18.5c-1.4,0.99-2.83,1.98-4.22,2.93
						c-4.72,3.25-9.61,6.61-13.66,10.65c-4.31,4.3-8.09,9.71-11.76,16.88c0,0-0.01,0.01-0.02,0.04c-0.27,0.57-3.07,6.38-4.3,10.71
						v-26.86l0.23-0.16c6.75-4.93,13.45-10.24,19.94-15.38c2.77-2.2,5.64-4.47,8.47-6.68l0.09-0.07
						c5.64-4.41,11.48-8.97,14.38-15.27c2.36-5.13,2.4-11.28,0.12-17.31l-1.09-2.89c0.07,0,0.13,0,0.2,0
						c0.45,0.01,0.89,0.03,1.33,0.05l2.92,0.31l1.04,0.11l2.86,0.3c0.39,0.07,0.77,0.14,1.15,0.22c0.59,0.12,1.17,0.25,1.74,0.39
						l0.3,1.01C557.16,460.41,556.39,468.41,552.81,475.6z"/>
				</g>
			</g>
			<g>
				<g>
					<path class="st0" d="M522.35,480.69c2.68-3.11,6.06-7.3,8.38-12.19c2.63-5.54,3.31-11.48,2.1-18.17l-0.29-1.57h-11.2l0.97,2.59
						c0.44,1.18,0.75,2.26,0.94,3.31c0.59,3.26-0.4,7.03-3.03,11.54c-5.06,8.69-12.64,15.75-19.97,22.58l-0.87,0.81v12.61l3.13-2.58
						C510.74,492.85,517.04,486.84,522.35,480.69z"/>
					<path class="st0" d="M574,468.11C574,468.11,574,468.11,574,468.11c-0.13,3.27-0.69,7.56-2.33,12.14
						c-2.93,8.24-8.38,15.02-16.19,20.15c-7.58,4.98-13.26,9.9-16.87,14.62l-0.27-0.51h-10.13l0.5-0.92
						c2.35-4.31,7.81-11.2,20.44-19.49c8.5-5.58,13.86-13.19,15.94-22.62c1.08-4.9,0.94-8.99,0.76-11.04c0,0,0,0,0,0
						c0-0.01,0-0.02,0-0.05c0-0.06-0.01-0.16-0.03-0.31c0-0.03-0.01-0.05-0.01-0.08c-0.11-0.89-0.5-2.92-1.71-4.01
						c1.1,0.71,2.13,1.5,3.08,2.35c0.13,0.11,0.26,0.23,0.38,0.35l1.62,1.99l1.35,1.67l0.09,0.11l1.44,1.77
						C572.79,465.46,573.44,466.75,574,468.11z"/>
					<path class="st0" d="M538.34,514.52l0.27,0.51c-0.16,0.21-0.31,0.41-0.46,0.62l-0.57,0.79h-10.41l1.05-1.92H538.34z"/>
					<path class="st0" d="M565.81,460.09c0.02,0.14,0.03,0.25,0.03,0.31C565.83,460.29,565.82,460.19,565.81,460.09z"/>
					<path class="st0" d="M574,468.11c-0.56-1.37-1.21-2.66-1.95-3.88l-1.44-1.77l-0.09-0.11l-1.35-1.67l-1.62-1.99
						c-0.13-0.12-0.25-0.23-0.38-0.35l1.87-0.86l4.88,6.01l0.04,0.61C574.02,465.14,574.06,466.5,574,468.11z"/>
					<polygon class="st0" points="500.75,508.86 501.31,508.45 501.31,526.34 500.75,526.22 					"/>
					<path class="st0" d="M543.42,450.67l0.2,0.02c-0.06,0-0.13,0-0.2,0L543.42,450.67z"/>
					<path class="st0" d="M554.67,452.06c-0.57-0.14-1.15-0.27-1.74-0.39l1.68,0.18L554.67,452.06z"/>
				</g>
			</g>
		</g>
	</g>
	<path class="st0" d="M783.73,428.05v143.89H476.42V428.05H783.73 M793.77,418.02H466.38v163.96h327.38V418.02L793.77,418.02z"/>
	<path class="st0" d="M257.26,465.09c-2.32,4.9-5.7,9.09-8.38,12.19c-5.31,6.15-11.61,12.16-19.82,18.92l-1.22,1v-12.82
		c7-6.52,14.1-13.33,18.92-21.6c2.63-4.51,3.62-8.28,3.03-11.54c-0.19-1.05-0.5-2.13-0.94-3.31l-0.02-0.07h10.69
		C260.5,454.17,259.76,459.81,257.26,465.09z"/>
	<path class="st0" d="M279.33,472.19c-4.11,8.24-11.17,13.98-17.54,18.5c-1.4,0.99-2.83,1.98-4.22,2.93
		c-4.72,3.25-9.61,6.61-13.66,10.65c-4.31,4.3-8.08,9.7-11.76,16.87c0,0-0.01,0.01-0.02,0.04c-0.28,0.57-3.08,6.37-4.3,10.71v-26.86
		l0.22-0.17c6.75-4.93,13.46-10.24,19.94-15.38c2.77-2.19,5.63-4.47,8.47-6.68l0.09-0.06c5.65-4.41,11.48-8.97,14.38-15.27
		c2.35-5.14,2.4-11.28,0.12-17.31l-0.84-2.22c4.22,0.17,7.97,0.68,11.23,1.5l0.06,0.22C283.69,457,282.92,465,279.33,472.19z"/>
	<path class="st0" d="M300.52,464.45c-0.14,3.26-0.71,7.89-2.32,12.39c-2.93,8.24-8.38,15.02-16.18,20.15
		c-7.59,4.98-14.21,11.09-17.59,16.82h-11.15l1.96-3.63c2.35-4.31,7.81-11.2,20.44-19.49c8.5-5.59,13.86-13.2,15.94-22.62
		c1.07-4.9,0.94-9,0.76-11.04c0-0.01-0.01-0.02-0.01-0.05c-0.01-0.11-0.02-0.21-0.03-0.3c0-0.03-0.01-0.06-0.01-0.09
		c-0.08-0.62-0.3-1.81-0.83-2.83c1.45,0.95,2.76,2,3.92,3.16C297.6,459.12,299.31,461.62,300.52,464.45z"/>
</g>
</svg>
