<?xml version="1.0" encoding="UTF-8"?><svg id="Layer_1" xmlns="http://www.w3.org/2000/svg" xmlns:xlink="http://www.w3.org/1999/xlink" viewBox="0 0 1166 1200"><defs>

<style>.cls-1{fill:url(#New_Pattern_5);}.cls-1,.cls-2,.cls-3{stroke-width:0px;}.cls-2{fill:none;}.cls-3{fill:#dddce3;}</style>

<pattern id="New_Pattern_5" x="0" y="0" width="432" height="438" patternTransform="translate(-7039.89 -4258.62) scale(.45)" patternUnits="userSpaceOnUse" viewBox="0 0 432 438">
    <rect class="cls-2" width="432" height="438"/>
        <path class="cls-3" d="m341.21,484.24c.55-.55.56-1.44,0-1.99-27.33-26.92-86.74-69.27-111.7-60.64-1.04.33-4.66,1.68-7.85,4.87-.46.46-.61,1.23.11,1.27,2.23.14,6.32,1.17,7.11,1.34,3.02.62,5.96,1.45,8.87,2.46,13.47,4.63,26.6,10.54,38.87,17.79,19.49,11.52,40.04,27.25,55.26,42.27.55.54,1.43.54,1.97,0l7.36-7.36Z"/>
        <path class="cls-3" d="m387.4,421.84c.55-.55,1.44-.56,1.99,0,26.92,27.33,69.27,86.74,60.64,111.7-.33,1.04-1.68,4.66-4.87,7.85-.46.46-1.23.61-1.27-.11-.14-2.23-1.17-6.32-1.34-7.11-.62-3.02-1.45-5.96-2.46-8.87-4.63-13.47-10.54-26.6-17.79-38.87-11.52-19.49-27.25-40.04-42.27-55.26-.54-.55-.54-1.43,0-1.97l7.36-7.36Z"/>
        <path class="cls-3" d="m477.43,331.89c.55-.55,1.44-.56,1.99,0,16.76,16.98,34.13,40.02,46.1,61,6.16,10.79,12.01,22.24,14.64,34.47.75,3.5,1.23,7.08.97,10.65-.36,5.05-2.34,9.83-5.94,13.43-2.65,2.65-6.64,4.38-7.41,4.7l-.33.13c-23.99,8.46-79.34-28.47-108.43-57.23-1.48-1.47-2.3-3.42-2.3-5.5-.01-2.08.8-4.05,2.28-5.53l17.16-17.16c3.02-3.02,7.93-3.03,10.96-.04,15.15,14.99,35.39,30.3,54.12,40.96,9.64,5.49,17.63,9.05,24,11.18-1.47-4.23-3.7-9.42-6.97-15.78-11.26-21.86-30.09-47.6-48.2-65.95-.54-.55-.54-1.43,0-1.97l7.35-7.35Zm50.53,105.47c-25.89-5.98-62.77-31.35-86.23-53.4l-9.48,9.48c14.61,13.74,33.02,27.4,50.18,37.16,21.79,12.41,35.15,14.99,40.45,13.28,1.04-.46,2.48-1.28,2.97-1.77.91-.91,1.47-2.12,1.64-2.57l.07-.22c.13-.39.3-1.01.39-1.93Z"/>
        <path class="cls-3" d="m429.58,392.87c.55-.55.56-1.44,0-1.99-16.98-16.76-40.02-34.13-61-46.1-10.79-6.16-22.24-12.01-34.47-14.64-3.5-.75-7.08-1.23-10.65-.97-5.05.36-9.83,2.34-13.43,5.94-2.65,2.65-4.38,6.64-4.7,7.41l-.13.33c-8.46,23.99,28.47,79.34,57.23,108.43,1.47,1.48,3.42,2.3,5.5,2.3,2.08.01,4.05-.8,5.53-2.28l17.16-17.16c3.02-3.02,3.03-7.93.04-10.96-14.99-15.15-30.3-35.39-40.96-54.12-5.49-9.64-9.05-17.63-11.18-24,4.23,1.47,9.42,3.7,15.78,6.97,21.86,11.26,47.6,30.09,65.95,48.2.55.54,1.43.54,1.97,0l7.35-7.35Zm-105.47-50.53c5.98,25.89,31.35,62.77,53.4,86.23l-9.48,9.48c-13.74-14.61-27.4-33.02-37.16-50.18-12.41-21.79-14.99-35.15-13.28-40.45.46-1.04,1.28-2.48,1.77-2.97.91-.91,2.12-1.47,2.57-1.64l.22-.07c.39-.13,1.01-.3,1.93-.39Z"/>
        <path class="cls-3" d="m448.4,374.05c.55-.55.56-1.44,0-1.99-27.33-26.92-86.74-69.27-111.7-60.64-1.04.33-4.66,1.68-7.85,4.87-.46.46-.61,1.23.11,1.27,2.23.14,6.32,1.17,7.11,1.34,3.02.62,5.96,1.45,8.87,2.46,13.47,4.63,26.6,10.54,38.87,17.79,19.49,11.52,40.04,27.25,55.26,42.27.55.54,1.43.54,1.97,0l7.36-7.36Z"/>
        <path class="cls-3" d="m538.38,284.07c.55-.55.56-1.44,0-1.99-16.98-16.76-40.02-34.13-61-46.1-10.79-6.16-22.24-12.01-34.47-14.64-3.5-.75-7.08-1.23-10.65-.97-5.05.36-9.83,2.34-13.43,5.94-2.65,2.65-4.38,6.64-4.7,7.41l-.13.33c-8.46,23.99,28.47,79.34,57.23,108.43,1.47,1.48,3.42,2.3,5.5,2.3,2.08.01,4.05-.8,5.53-2.28l17.16-17.16c3.02-3.02,3.03-7.93.04-10.96-14.99-15.15-30.3-35.39-40.96-54.12-5.49-9.64-9.05-17.63-11.18-24,4.23,1.47,9.42,3.7,15.78,6.97,21.86,11.26,47.6,30.09,65.95,48.2.55.54,1.43.54,1.97,0l7.35-7.35Zm-105.47-50.53c5.98,25.89,31.35,62.77,53.4,86.23l-9.48,9.48c-13.74-14.61-27.4-33.02-37.16-50.18-12.41-21.79-14.99-35.15-13.28-40.45.46-1.04,1.28-2.48,1.77-2.97.91-.91,2.12-1.47,2.57-1.64l.22-.07c.39-.13,1.01-.3,1.93-.39Z"/>
        <path class="cls-3" d="m-44.6,421.84c.55-.55,1.44-.56,1.99,0,26.92,27.33,69.27,86.74,60.64,111.7-.33,1.04-1.68,4.66-4.87,7.85-.46.46-1.23.61-1.27-.11-.14-2.23-1.17-6.32-1.34-7.11-.62-3.02-1.45-5.96-2.46-8.87-4.63-13.47-10.54-26.6-17.79-38.87-11.52-19.49-27.25-40.04-42.27-55.26-.54-.55-.54-1.43,0-1.97l7.36-7.36Z"/>
        <path class="cls-3" d="m45.43,331.89c.55-.55,1.44-.56,1.99,0,16.76,16.98,34.13,40.02,46.1,61,6.16,10.79,12.01,22.24,14.64,34.47.75,3.5,1.23,7.08.97,10.65-.36,5.05-2.34,9.83-5.94,13.43-2.65,2.65-6.64,4.38-7.41,4.7l-.33.13c-23.99,8.46-79.34-28.47-108.43-57.23-1.48-1.47-2.3-3.42-2.3-5.5-.01-2.08.8-4.05,2.28-5.53l17.16-17.16c3.02-3.02,7.93-3.03,10.96-.04,15.15,14.99,35.39,30.3,54.12,40.96,9.64,5.49,17.63,9.05,24,11.18-1.47-4.23-3.7-9.42-6.97-15.78-11.26-21.86-30.09-47.6-48.2-65.95-.54-.55-.54-1.43,0-1.97l7.35-7.35Zm50.53,105.47c-25.89-5.98-62.77-31.35-86.23-53.4l-9.48,9.48c14.61,13.74,33.02,27.4,50.18,37.16,21.79,12.41,35.15,14.99,40.45,13.28,1.04-.46,2.48-1.28,2.97-1.77.91-.91,1.47-2.12,1.64-2.57l.07-.22c.13-.39.3-1.01.39-1.93Z"/>
        <path class="cls-3" d="m64.25,313.06c.55-.55,1.44-.56,1.99,0,26.92,27.33,69.27,86.74,60.64,111.7-.33,1.04-1.68,4.66-4.87,7.85-.46.46-1.23.61-1.27-.11-.14-2.23-1.17-6.32-1.34-7.11-.62-3.02-1.45-5.96-2.46-8.87-4.63-13.47-10.54-26.6-17.79-38.87-11.52-19.49-27.25-40.04-42.27-55.26-.54-.55-.54-1.43,0-1.97l7.36-7.36Z"/>
        <path class="cls-3" d="m16.4,374.05c.55-.55.56-1.44,0-1.99-27.33-26.92-86.74-69.27-111.7-60.64-1.04.33-4.66,1.68-7.85,4.87-.46.46-.61,1.23.11,1.27,2.23.14,6.32,1.17,7.11,1.34,3.02.62,5.96,1.45,8.87,2.46,13.47,4.63,26.6,10.54,38.87,17.79,19.49,11.52,40.04,27.25,55.26,42.27.55.54,1.43.54,1.97,0l7.36-7.36Z"/>
        <path class="cls-3" d="m106.38,284.07c.55-.55.56-1.44,0-1.99-16.98-16.76-40.02-34.13-61-46.1-10.79-6.16-22.24-12.01-34.47-14.64-3.5-.75-7.08-1.23-10.65-.97-5.05.36-9.83,2.34-13.43,5.94-2.65,2.65-4.38,6.64-4.7,7.41l-.13.33c-8.46,23.99,28.47,79.34,57.23,108.43,1.47,1.48,3.42,2.3,5.5,2.3,2.08.01,4.05-.8,5.53-2.28l17.16-17.16c3.02-3.02,3.03-7.93.04-10.96-14.99-15.15-30.3-35.39-40.96-54.12-5.49-9.64-9.05-17.63-11.18-24,4.23,1.47,9.42,3.7,15.78,6.97,21.86,11.26,47.6,30.09,65.95,48.2.55.54,1.43.54,1.97,0l7.35-7.35ZM.91,233.53c5.98,25.89,31.35,62.77,53.4,86.23l-9.48,9.48c-13.74-14.61-27.4-33.02-37.16-50.18-12.41-21.79-14.99-35.15-13.28-40.45.46-1.04,1.28-2.48,1.77-2.97.91-.91,2.12-1.47,2.57-1.64l.22-.07c.39-.13,1.01-.3,1.93-.39Z"/>
        <path class="cls-3" d="m125.21,265.24c.55-.55.56-1.44,0-1.99-27.33-26.92-86.74-69.27-111.7-60.64-1.04.33-4.66,1.68-7.85,4.87-.46.46-.61,1.23.11,1.27,2.23.14,6.32,1.17,7.11,1.34,3.02.62,5.96,1.45,8.87,2.46,13.47,4.63,26.6,10.54,38.87,17.79,19.49,11.52,40.04,27.25,55.26,42.27.55.54,1.43.54,1.97,0l7.36-7.36Z"/>
        <path class="cls-3" d="m152.58,221.66c.55-.55,1.44-.56,1.99,0,16.76,16.98,34.13,40.02,46.1,61,6.16,10.79,12.01,22.24,14.64,34.47.75,3.5,1.23,7.08.97,10.65-.36,5.05-2.34,9.83-5.94,13.43-2.65,2.65-6.64,4.38-7.41,4.7l-.33.13c-23.99,8.46-79.34-28.47-108.43-57.23-1.48-1.47-2.3-3.42-2.3-5.5-.01-2.08.8-4.05,2.28-5.53l17.16-17.16c3.02-3.02,7.93-3.03,10.96-.04,15.15,14.99,35.39,30.3,54.12,40.96,9.64,5.49,17.63,9.05,24,11.18-1.47-4.23-3.7-9.42-6.97-15.78-11.26-21.86-30.09-47.6-48.2-65.95-.54-.55-.54-1.43,0-1.97l7.35-7.35Zm50.53,105.47c-25.89-5.98-62.77-31.35-86.23-53.4l-9.48,9.48c14.61,13.74,33.02,27.4,50.18,37.16,21.79,12.41,35.15,14.99,40.45,13.28,1.04-.46,2.48-1.28,2.97-1.77.91-.91,1.47-2.12,1.64-2.57l.07-.22c.13-.39.3-1.01.39-1.93Z"/>
        <path class="cls-3" d="m171.4,202.84c.55-.55,1.44-.56,1.99,0,26.92,27.33,69.27,86.74,60.64,111.7-.33,1.04-1.68,4.66-4.87,7.85-.46.46-1.23.61-1.27-.11-.14-2.23-1.17-6.32-1.34-7.11-.62-3.02-1.45-5.96-2.46-8.87-4.63-13.47-10.54-26.6-17.79-38.87-11.52-19.49-27.25-40.04-42.27-55.26-.54-.55-.54-1.43,0-1.97l7.36-7.36Z"/>
        <path class="cls-3" d="m261.43,112.89c.55-.55,1.44-.56,1.99,0,16.76,16.98,34.13,40.02,46.1,61,6.16,10.79,12.01,22.24,14.64,34.47.75,3.5,1.23,7.08.97,10.65-.36,5.05-2.34,9.83-5.94,13.43-2.65,2.65-6.64,4.38-7.41,4.7l-.33.13c-23.99,8.46-79.34-28.47-108.43-57.23-1.48-1.47-2.3-3.42-2.3-5.5-.01-2.08.8-4.05,2.28-5.53l17.16-17.16c3.02-3.02,7.93-3.03,10.96-.04,15.15,14.99,35.39,30.3,54.12,40.96,9.64,5.49,17.63,9.05,24,11.18-1.47-4.23-3.7-9.42-6.97-15.78-11.26-21.86-30.09-47.6-48.2-65.95-.54-.55-.54-1.43,0-1.97l7.35-7.35Zm50.53,105.47c-25.89-5.98-62.77-31.35-86.23-53.4l-9.48,9.48c14.61,13.74,33.02,27.4,50.18,37.16,21.79,12.41,35.15,14.99,40.45,13.28,1.04-.46,2.48-1.28,2.97-1.77.91-.91,1.47-2.12,1.64-2.57l.07-.22c.13-.39.3-1.01.39-1.93Z"/>
        <path class="cls-3" d="m280.25,94.06c.55-.55,1.44-.56,1.99,0,26.92,27.33,69.27,86.74,60.64,111.7-.33,1.04-1.68,4.66-4.87,7.85-.46.46-1.23.61-1.27-.11-.14-2.23-1.17-6.32-1.34-7.11-.62-3.02-1.45-5.96-2.46-8.87-4.63-13.47-10.54-26.6-17.79-38.87-11.52-19.49-27.25-40.04-42.27-55.26-.54-.55-.54-1.43,0-1.97l7.36-7.36Z"/>
        <path class="cls-3" d="m213.58,173.87c.55-.55.56-1.44,0-1.99-16.98-16.76-40.02-34.13-61-46.1-10.79-6.16-22.24-12.01-34.47-14.64-3.5-.75-7.08-1.23-10.65-.97-5.05.36-9.83,2.34-13.43,5.94-2.65,2.65-4.38,6.64-4.7,7.41l-.13.33c-8.46,23.99,28.47,79.34,57.23,108.43,1.47,1.48,3.42,2.3,5.5,2.3,2.08.01,4.05-.8,5.53-2.28l17.16-17.16c3.02-3.02,3.03-7.93.04-10.96-14.99-15.15-30.3-35.39-40.96-54.12-5.49-9.64-9.05-17.63-11.18-24,4.23,1.47,9.42,3.7,15.78,6.97,21.86,11.26,47.6,30.09,65.95,48.2.55.54,1.43.54,1.97,0l7.35-7.35Zm-105.47-50.53c5.98,25.89,31.35,62.77,53.4,86.23l-9.48,9.48c-13.74-14.61-27.4-33.02-37.16-50.18-12.41-21.79-14.99-35.15-13.28-40.45.46-1.04,1.28-2.48,1.77-2.97.91-.91,2.12-1.47,2.57-1.64l.22-.07c.39-.13,1.01-.3,1.93-.39Z"/>
        <path class="cls-3" d="m232.4,155.05c.55-.55.56-1.44,0-1.99-27.33-26.92-86.74-69.27-111.7-60.64-1.04.33-4.66,1.68-7.85,4.87-.46.46-.61,1.23.11,1.27,2.23.14,6.32,1.17,7.11,1.34,3.02.62,5.96,1.45,8.87,2.46,13.47,4.63,26.6,10.54,38.87,17.79,19.49,11.52,40.04,27.25,55.26,42.27.55.54,1.43.54,1.97,0l7.36-7.36Z"/>
        <path class="cls-3" d="m322.38,65.07c.55-.55.56-1.44,0-1.99-16.98-16.76-40.02-34.13-61-46.1-10.79-6.16-22.24-12.01-34.47-14.64-3.5-.75-7.08-1.23-10.65-.97-5.05.36-9.83,2.34-13.43,5.94-2.65,2.65-4.38,6.64-4.7,7.41l-.13.33c-8.46,23.99,28.47,79.34,57.23,108.43,1.47,1.48,3.42,2.3,5.5,2.3,2.08.01,4.05-.8,5.53-2.28l17.16-17.16c3.02-3.02,3.03-7.93.04-10.96-14.99-15.15-30.3-35.39-40.96-54.12-5.49-9.64-9.05-17.63-11.18-24,4.23,1.47,9.42,3.7,15.78,6.97,21.86,11.26,47.6,30.09,65.95,48.2.55.54,1.43.54,1.97,0l7.35-7.35ZM216.91,14.53c5.98,25.89,31.35,62.77,53.4,86.23l-9.48,9.48c-13.74-14.61-27.4-33.02-37.16-50.18-12.41-21.79-14.99-35.15-13.28-40.45.46-1.04,1.28-2.48,1.77-2.97.91-.91,2.12-1.47,2.57-1.64l.22-.07c.39-.13,1.01-.3,1.93-.39Z"/>
        <path class="cls-3" d="m341.21,46.24c.55-.55.56-1.44,0-1.99-27.33-26.92-86.74-69.27-111.7-60.64-1.04.33-4.66,1.68-7.85,4.87-.46.46-.61,1.23.11,1.27,2.23.14,6.32,1.17,7.11,1.34,3.02.62,5.96,1.45,8.87,2.46,13.47,4.63,26.6,10.54,38.87,17.79,19.49,11.52,40.04,27.25,55.26,42.27.55.54,1.43.54,1.97,0l7.36-7.36Z"/>
        <path class="cls-3" d="m368.58,2.66c.55-.55,1.44-.56,1.99,0,16.76,16.98,34.13,40.02,46.1,61,6.16,10.79,12.01,22.24,14.64,34.47.75,3.5,1.23,7.08.97,10.65-.36,5.05-2.34,9.83-5.94,13.43-2.65,2.65-6.64,4.38-7.41,4.7l-.33.13c-23.99,8.46-79.34-28.47-108.43-57.23-1.48-1.47-2.3-3.42-2.3-5.5-.01-2.08.8-4.05,2.28-5.53l17.16-17.16c3.02-3.02,7.93-3.03,10.96-.04,15.15,14.99,35.39,30.3,54.12,40.96,9.64,5.49,17.63,9.05,24,11.18-1.47-4.23-3.7-9.42-6.97-15.78-11.26-21.86-30.09-47.6-48.2-65.95-.54-.55-.54-1.43,0-1.97l7.35-7.35Zm50.53,105.47c-25.89-5.98-62.77-31.35-86.23-53.4l-9.48,9.48c14.61,13.74,33.02,27.4,50.18,37.16,21.79,12.41,35.15,14.99,40.45,13.28,1.04-.46,2.48-1.28,2.97-1.77.91-.91,1.47-2.12,1.64-2.57l.07-.22c.13-.39.3-1.01.39-1.93Z"/>
        <path class="cls-3" d="m387.4-16.16c.55-.55,1.44-.56,1.99,0,26.92,27.33,69.27,86.74,60.64,111.7-.33,1.04-1.68,4.66-4.87,7.85-.46.46-1.23.61-1.27-.11-.14-2.23-1.17-6.32-1.34-7.11-.62-3.02-1.45-5.96-2.46-8.87-4.63-13.47-10.54-26.6-17.79-38.87-11.52-19.49-27.25-40.04-42.27-55.26-.54-.55-.54-1.43,0-1.97l7.36-7.36Z"/>
        <path class="cls-3" d="m477.43-106.11c.55-.55,1.44-.56,1.99,0,16.76,16.98,34.13,40.02,46.1,61,6.16,10.79,12.01,22.24,14.64,34.47.75,3.5,1.23,7.08.97,10.65-.36,5.05-2.34,9.83-5.94,13.43-2.65,2.65-6.64,4.38-7.41,4.7l-.33.13c-23.99,8.46-79.34-28.47-108.43-57.23-1.48-1.47-2.3-3.42-2.3-5.5-.01-2.08.8-4.05,2.28-5.53l17.16-17.16c3.02-3.02,7.93-3.03,10.96-.04,15.15,14.99,35.39,30.3,54.12,40.96,9.64,5.49,17.63,9.05,24,11.18-1.47-4.23-3.7-9.42-6.97-15.78-11.26-21.86-30.09-47.6-48.2-65.95-.54-.55-.54-1.43,0-1.97l7.35-7.35ZM527.96-.64c-25.89-5.98-62.77-31.35-86.23-53.4l-9.48,9.48c14.61,13.74,33.02,27.4,50.18,37.16,21.79,12.41,35.15,14.99,40.45,13.28,1.04-.46,2.48-1.28,2.97-1.77.91-.91,1.47-2.12,1.64-2.57l.07-.22c.13-.39.3-1.01.39-1.93Z"/>
        <path class="cls-3" d="m429.58-45.13c.55-.55.56-1.44,0-1.99-16.98-16.76-40.02-34.13-61-46.1-10.79-6.16-22.24-12.01-34.47-14.64-3.5-.75-7.08-1.23-10.65-.97-5.05.36-9.83,2.34-13.43,5.94-2.65,2.65-4.38,6.64-4.7,7.41l-.13.33c-8.46,23.99,28.47,79.34,57.23,108.43,1.47,1.48,3.42,2.3,5.5,2.3,2.08.01,4.05-.8,5.53-2.28l17.16-17.16c3.02-3.02,3.03-7.93.04-10.96-14.99-15.15-30.3-35.39-40.96-54.12-5.49-9.64-9.05-17.63-11.18-24,4.23,1.47,9.42,3.7,15.78,6.97,21.86,11.26,47.6,30.09,65.95,48.2.55.54,1.43.54,1.97,0l7.35-7.35Zm-105.47-50.53c5.98,25.89,31.35,62.77,53.4,86.23L368.04.05c-13.74-14.61-27.4-33.02-37.16-50.18-12.41-21.79-14.99-35.15-13.28-40.45.46-1.04,1.28-2.48,1.77-2.97.91-.91,2.12-1.47,2.57-1.64l.22-.07c.39-.13,1.01-.3,1.93-.39Z"/>
        <path class="cls-3" d="m-63.42,2.66c.55-.55,1.44-.56,1.99,0C-44.67,19.64-27.3,42.68-15.33,63.66c6.16,10.79,12.01,22.24,14.64,34.47.75,3.5,1.23,7.08.97,10.65-.36,5.05-2.34,9.83-5.94,13.43-2.65,2.65-6.64,4.38-7.41,4.7l-.33.13c-23.99,8.46-79.34-28.47-108.43-57.23-1.48-1.47-2.3-3.42-2.3-5.5-.01-2.08.8-4.05,2.28-5.53l17.16-17.16c3.02-3.02,7.93-3.03,10.96-.04,15.15,14.99,35.39,30.3,54.12,40.96,9.64,5.49,17.63,9.05,24,11.18-1.47-4.23-3.7-9.42-6.97-15.78-11.26-21.86-30.09-47.6-48.2-65.95-.54-.55-.54-1.43,0-1.97l7.35-7.35ZM-12.89,108.13c-25.89-5.98-62.77-31.35-86.23-53.4l-9.48,9.48c14.61,13.74,33.02,27.4,50.18,37.16,21.79,12.41,35.15,14.99,40.45,13.28,1.04-.46,2.48-1.28,2.97-1.77.91-.91,1.47-2.12,1.64-2.57l.07-.22c.13-.39.3-1.01.39-1.93Z"/>
        <path class="cls-3" d="m-44.6-16.16c.55-.55,1.44-.56,1.99,0C-15.69,11.17,26.66,70.58,18.03,95.53c-.33,1.04-1.68,4.66-4.87,7.85-.46.46-1.23.61-1.27-.11-.14-2.23-1.17-6.32-1.34-7.11-.62-3.02-1.45-5.96-2.46-8.87-4.63-13.47-10.54-26.6-17.79-38.87C-21.21,28.94-36.94,8.39-51.96-6.83c-.54-.55-.54-1.43,0-1.97l7.36-7.36Z"/>
        <path class="cls-3" d="m45.43-106.11c.55-.55,1.44-.56,1.99,0,16.76,16.98,34.13,40.02,46.1,61,6.16,10.79,12.01,22.24,14.64,34.47.75,3.5,1.23,7.08.97,10.65-.36,5.05-2.34,9.83-5.94,13.43-2.65,2.65-6.64,4.38-7.41,4.7l-.33.13C71.46,26.72,16.11-10.21-12.97-38.97c-1.48-1.47-2.3-3.42-2.3-5.5-.01-2.08.8-4.05,2.28-5.53l17.16-17.16c3.02-3.02,7.93-3.03,10.96-.04,15.15,14.99,35.39,30.3,54.12,40.96,9.64,5.49,17.63,9.05,24,11.18-1.47-4.23-3.7-9.42-6.97-15.78-11.26-21.86-30.09-47.6-48.2-65.95-.54-.55-.54-1.43,0-1.97l7.35-7.35ZM95.96-.64C70.08-6.62,33.19-31.99,9.73-54.05L.25-44.57C14.87-30.83,33.27-17.17,50.43-7.41c21.79,12.41,35.15,14.99,40.45,13.28,1.04-.46,2.48-1.28,2.97-1.77.91-.91,1.47-2.12,1.64-2.57l.07-.22c.13-.39.3-1.01.39-1.93Z"/>
</pattern></defs>
<rect class="cls-1" x="-2.06" y="-2.87" width="1169" height="1200"/></svg>