<?xml version="1.0" encoding="UTF-8"?><svg id="Layer_2" xmlns="http://www.w3.org/2000/svg" viewBox="0 0 117.4374 126.8763"><g id="Components"><g id="_33cab1f5-3f56-4f16-a3fe-5dbe66c11a52_1"><path d="m90.8186,1.5019h-13.2076c0,26.0325-4.9263,58.2616-12.5562,82.1036-2.1823,6.8155-4.2831,12.0594-6.2292,16.0901-2.9966-6.0094-6.1234-14.1766-9.0629-24.8762-5.7081-20.7886-9.1932-45.9254-9.3072-67.235-.0007-.1222-.1379-7.5845-.1379-7.5845H0l.7783,14.4683c1.508,40.965,14.3387,99.9527,36.0537,110.3479l.3257.1466c.7736.3175,4.8124,1.9135,8.5664,1.9135,5.0908,0,9.8764-1.9755,13.6981-5.293,2.7006-2.3443,4.9008-5.2134,6.84-8.2181,6.7809-10.5065,10.7468-22.744,14.0197-34.7267,6.4897-23.7607,10.5367-53.0014,10.5367-77.1366Zm-41.9028,111.4014l-.2117.1058c-.4397.2036-1.6937.6595-2.9802.6595-.7003,0-2.2963-.4397-3.3548-.8469-4.9671-2.5405-12.5806-13.8101-19.217-37.9942-5.2358-19.0378-8.5906-41.7073-9.2095-61.7549h13.4031c.9934,32.1885,9.1362,76.2083,23.215,98.7394-.7166.5863-1.2784.912-1.6448,1.0912Z" style="fill:#231f20; stroke-width:0px;"/><path d="m104.2297,1.5019c0,21.6516-3.4362,47.9528-9.1932,70.3536-3.5453,13.8-8.6491,27.2642-14.9017,40.0634-1.3536,2.7709-2.8414,5.4329-4.5389,8.0109-.4419.6711-2.6034,4.2997-4.0841,5.9727-.4775.5394.1713.9739.8227.9739,4.5192,0,8.0288-1.6122,8.9978-2.1089,24.0375-11.6849,36.1051-85.2794,36.1051-123.2654h-13.2076Z" style="fill:#231f20; stroke-width:0px;"/></g></g></svg>